<svg xmlns="http://www.w3.org/2000/svg" viewBox="0 0 900 620" role="img" aria-labelledby="title desc">
  <title id="title">Generic developer workspace illustration</title>
  <desc id="desc">Abstract terminal windows and infrastructure blocks on a dark surface.</desc>
  <rect width="900" height="620" rx="28" fill="#111116"/>
  <rect x="120" y="110" width="660" height="400" rx="22" fill="#17171d" stroke="#aac7ff" stroke-opacity=".42" stroke-width="4"/>
  <rect x="120" y="110" width="660" height="62" rx="22" fill="#20202a"/>
  <circle cx="166" cy="141" r="10" fill="#64fd7d"/>
  <circle cx="202" cy="141" r="10" fill="#aac7ff"/>
  <circle cx="238" cy="141" r="10" fill="#2faad5"/>
  <g fill="none" stroke-linecap="round" stroke-width="8">
    <path d="M184 245l58 46-58 46" stroke="#64fd7d"/>
    <path d="M292 343h168" stroke="#aac7ff"/>
    <path d="M520 248h164M520 302h108M520 356h138" stroke="#e6e4ec" stroke-opacity=".68"/>
  </g>
  <g fill="#aac7ff" opacity=".18">
    <rect x="162" y="410" width="130" height="48" rx="12"/>
    <rect x="318" y="410" width="130" height="48" rx="12"/>
    <rect x="474" y="410" width="130" height="48" rx="12"/>
    <rect x="630" y="410" width="88" height="48" rx="12"/>
  </g>
</svg>
