<svg version="1.1" id="Layer_1" xmlns="http://www.w3.org/2000/svg" xmlns:xlink="http://www.w3.org/1999/xlink" x="0px" y="0px"
	 width="100%" viewBox="0 0 512 512" enable-background="new 0 0 512 512" xml:space="preserve">
<path fill="#000000" opacity="1.000000" stroke="none" 
	d="
M270.000000,513.000000 
	C180.021835,513.000000 90.543671,513.000000 1.032752,513.000000 
	C1.032752,342.396820 1.032752,171.793610 1.032752,1.095206 
	C171.561523,1.095206 342.123108,1.095206 512.842346,1.095206 
	C512.842346,171.666550 512.842346,342.333252 512.842346,513.000000 
	C432.126923,513.000000 351.313446,513.000000 270.000000,513.000000 
M218.500000,497.999084 
	C304.157593,497.999084 389.815521,497.883881 475.472382,498.136444 
	C486.919464,498.170166 498.195892,486.998749 498.146698,475.313416 
	C497.849731,404.822235 497.820587,334.328278 498.175232,263.837616 
	C498.234131,252.133133 486.684418,240.725174 475.193604,240.976471 
	C468.923859,241.113602 462.648651,241.000961 455.999176,241.000961 
	C455.999176,237.925476 455.999329,235.457794 455.999115,232.990112 
	C455.998291,223.721741 451.635712,217.841019 442.581848,214.888947 
	C440.889862,214.337265 439.133942,213.913025 437.532349,213.163345 
	C424.937653,207.268158 412.335419,201.386612 399.808990,195.348450 
	C383.587036,187.528915 367.468689,179.494125 351.241180,171.686279 
	C326.914398,159.981461 302.531433,148.393372 278.346741,136.838959 
	C278.267090,136.142334 278.128693,135.797089 278.209473,135.514481 
	C282.672485,119.899666 279.370514,111.597160 265.297729,103.807114 
	C261.553864,101.734657 263.340729,98.912254 263.344696,96.181931 
	C271.389282,95.805168 276.477295,92.148041 278.805847,84.541481 
	C282.527313,72.384789 286.898163,60.409977 290.133850,48.131470 
	C291.150085,44.275055 290.280914,39.319183 288.685242,35.537178 
	C286.890625,31.283691 283.135529,27.896097 280.527557,23.937922 
	C276.642853,18.042040 271.584747,15.294888 264.331207,15.893151 
	C258.041321,16.411934 251.626892,15.542385 245.362335,16.195683 
	C242.229935,16.522341 238.718643,18.265247 236.432297,20.463448 
	C233.062546,23.703276 230.799133,28.059839 227.766815,31.692270 
	C222.781265,37.664463 221.860153,43.891365 224.551147,51.301750 
	C228.719986,62.781666 232.252213,74.495506 235.933716,86.148277 
	C237.393463,90.768707 240.216141,93.799805 244.912903,95.040894 
	C246.901276,95.566307 248.895294,96.070412 251.405029,96.717911 
	C248.894440,106.817963 253.623413,112.463020 262.462738,116.377296 
	C267.897705,118.784027 268.834717,124.162468 266.729706,129.922333 
	C260.099976,129.922333 253.775833,129.922333 247.003601,129.922333 
	C246.752304,128.595978 246.409668,126.517876 245.957993,124.463737 
	C245.194778,120.992752 243.103775,118.601395 239.455353,119.150078 
	C236.262054,119.630310 233.441010,121.288391 234.001404,125.436264 
	C234.498047,129.112320 234.996948,132.788055 235.557388,136.925583 
	C219.628220,144.497070 203.366547,152.158737 187.163849,159.943146 
	C159.134857,173.409378 131.172760,187.015167 103.118935,200.429245 
	C92.669144,205.425842 82.195068,210.435883 71.446114,214.722824 
	C62.457630,218.307617 58.001667,223.732117 58.000984,233.439636 
	C58.000813,235.865158 58.000957,238.290680 58.000957,241.000870 
	C51.148888,241.000870 44.999821,241.118988 38.856865,240.975494 
	C27.201820,240.703262 15.768852,252.262405 15.826041,263.792267 
	C16.175678,334.282990 16.244055,404.777985 15.752437,475.266968 
	C15.673949,486.520538 27.891415,498.308411 39.020920,498.220581 
	C98.510818,497.750885 158.006393,497.999084 218.500000,497.999084 
z"/>
<path fill="#2B45E2" opacity="1.000000" stroke="none" 
	d="
M218.000000,497.999084 
	C158.006393,497.999084 98.510818,497.750885 39.020920,498.220581 
	C27.891415,498.308411 15.673949,486.520538 15.752437,475.266968 
	C16.244055,404.777985 16.175678,334.282990 15.826041,263.792267 
	C15.768852,252.262405 27.201820,240.703262 38.856865,240.975494 
	C44.999821,241.118988 51.148888,241.000870 58.000957,241.000870 
	C58.000957,238.290680 58.000813,235.865158 58.000984,233.439636 
	C58.001667,223.732117 62.457630,218.307617 71.446114,214.722824 
	C82.195068,210.435883 92.669144,205.425842 103.118935,200.429245 
	C131.172760,187.015167 159.134857,173.409378 187.163849,159.943146 
	C203.366547,152.158737 219.628220,144.497070 235.557388,136.925583 
	C234.996948,132.788055 234.498047,129.112320 234.001404,125.436264 
	C233.441010,121.288391 236.262054,119.630310 239.455353,119.150078 
	C243.103775,118.601395 245.194778,120.992752 245.957993,124.463737 
	C246.409668,126.517876 246.752304,128.595978 247.003601,129.922333 
	C253.775833,129.922333 260.099976,129.922333 266.729706,129.922333 
	C268.834717,124.162468 267.897705,118.784027 262.462738,116.377296 
	C253.623413,112.463020 248.894440,106.817963 251.405029,96.717911 
	C248.895294,96.070412 246.901276,95.566307 244.912903,95.040894 
	C240.216141,93.799805 237.393463,90.768707 235.933716,86.148277 
	C232.252213,74.495506 228.719986,62.781666 224.551147,51.301750 
	C221.860153,43.891365 222.781265,37.664463 227.766815,31.692270 
	C230.799133,28.059839 233.062546,23.703276 236.432297,20.463448 
	C238.718643,18.265247 242.229935,16.522341 245.362335,16.195683 
	C251.626892,15.542385 258.041321,16.411934 264.331207,15.893151 
	C271.584747,15.294888 276.642853,18.042040 280.527557,23.937922 
	C283.135529,27.896097 286.890625,31.283691 288.685242,35.537178 
	C290.280914,39.319183 291.150085,44.275055 290.133850,48.131470 
	C286.898163,60.409977 282.527313,72.384789 278.805847,84.541481 
	C276.477295,92.148041 271.389282,95.805168 263.344696,96.181931 
	C263.340729,98.912254 261.553864,101.734657 265.297729,103.807114 
	C279.370514,111.597160 282.672485,119.899666 278.209473,135.514481 
	C278.128693,135.797089 278.267090,136.142334 278.346741,136.838959 
	C302.531433,148.393372 326.914398,159.981461 351.241180,171.686279 
	C367.468689,179.494125 383.587036,187.528915 399.808990,195.348450 
	C412.335419,201.386612 424.937653,207.268158 437.532349,213.163345 
	C439.133942,213.913025 440.889862,214.337265 442.581848,214.888947 
	C451.635712,217.841019 455.998291,223.721741 455.999115,232.990112 
	C455.999329,235.457794 455.999176,237.925476 455.999176,241.000961 
	C462.648651,241.000961 468.923859,241.113602 475.193604,240.976471 
	C486.684418,240.725174 498.234131,252.133133 498.175232,263.837616 
	C497.820587,334.328278 497.849731,404.822235 498.146698,475.313416 
	C498.195892,486.998749 486.919464,498.170166 475.472382,498.136444 
	C389.815521,497.883881 304.157593,497.999084 218.000000,497.999084 
M253.869934,27.406059 
	C248.696121,26.246538 244.899689,27.940399 242.204224,32.594265 
	C240.800385,35.018051 238.414322,36.927078 237.274002,39.433521 
	C236.218155,41.754375 235.286636,44.829239 235.933319,47.108829 
	C239.057098,58.120480 242.784668,68.959457 246.177048,79.897209 
	C247.099930,82.872795 248.617401,84.531807 252.846878,83.938828 
	C256.012787,83.949989 259.288239,84.459839 262.306061,83.796806 
	C264.314301,83.355576 266.968475,81.596146 267.593750,79.815720 
	C271.401245,68.974419 274.753326,57.971298 278.134186,46.984261 
	C278.599792,45.471104 278.866699,43.592216 278.403198,42.146282 
	C274.952667,31.381989 265.939941,25.928520 253.869934,27.406059 
M462.063416,252.912567 
	C445.908417,252.899216 429.753418,252.874802 413.598419,252.874268 
	C309.163116,252.870773 204.727844,252.872391 100.292549,252.872604 
	C80.472969,252.872635 60.648888,252.658569 40.837925,253.072296 
	C37.256367,253.147095 32.786686,254.943146 30.446835,257.511414 
	C28.204622,259.972473 27.347183,264.469055 27.337273,268.075043 
	C27.162390,331.701813 27.209345,395.329193 27.219809,458.956421 
	C27.220028,460.283356 27.356627,461.610291 27.256498,463.859314 
	C27.238773,465.358459 27.206743,466.857635 27.205534,468.356781 
	C27.193489,483.291504 30.706390,486.762909 45.836170,486.763000 
	C187.121002,486.763611 328.405823,486.764557 469.690643,486.761139 
	C482.725525,486.760834 486.793671,482.729980 486.794464,469.822601 
	C486.798706,403.012207 486.796875,336.201813 486.793823,269.391418 
	C486.793762,267.892456 486.849457,266.384857 486.715576,264.895996 
	C486.049957,257.494110 481.386719,253.063080 473.970734,252.900681 
	C470.313141,252.820587 466.649902,252.999313 462.063416,252.912567 
M98.847031,240.837402 
	C100.176567,240.891708 101.506096,240.993454 102.835632,240.993546 
	C205.638580,241.000931 308.441528,241.001328 411.244476,240.990219 
	C412.694641,240.990067 414.144806,240.838272 414.625854,240.811401 
	C416.428314,233.255142 418.095367,226.266403 419.887207,218.754654 
	C412.895599,215.464233 404.893372,211.749710 396.935486,207.942505 
	C378.937378,199.331909 360.937531,190.724411 342.981934,182.025772 
	C319.256866,170.532089 295.596710,158.903839 271.824829,147.508347 
	C270.055115,146.659988 267.604614,147.052429 265.484070,147.152679 
	C261.045807,147.362457 256.233795,149.008377 252.273239,147.791977 
	C246.328079,145.966049 241.822083,147.404587 236.717072,149.963470 
	C221.661575,157.510025 206.391434,164.627426 191.227798,171.959351 
	C166.312729,184.006363 141.420425,196.100464 116.507561,208.152069 
	C108.634384,211.960739 100.726234,215.697098 92.331703,219.706512 
	C98.400101,225.896805 98.067566,233.092957 98.847031,240.837402 
M69.793327,240.655441 
	C72.661163,241.049225 75.523705,241.729034 78.397835,241.782150 
	C86.415749,241.930328 86.917015,241.289368 86.116814,233.434143 
	C85.676102,229.107834 83.434128,226.392136 79.010376,225.857193 
	C74.231827,225.279327 70.696404,227.473633 69.716248,232.034195 
	C69.174294,234.555832 69.500122,237.263962 69.793327,240.655441 
M441.909241,241.738953 
	C447.449432,239.160095 444.783691,234.666611 443.923615,231.110001 
	C442.838959,226.624786 438.221832,224.753494 433.529480,226.062469 
	C429.146057,227.285248 427.117493,231.837128 427.825104,238.370728 
	C428.391907,243.604141 432.386963,241.386276 435.086700,241.779251 
	C437.026154,242.061554 439.043060,241.812057 441.909241,241.738953 
z"/>
<path fill="#E8EBFF" opacity="1.000000" stroke="none" 
	d="
M27.429604,462.937225 
	C27.356627,461.610291 27.220028,460.283356 27.219809,458.956421 
	C27.209345,395.329193 27.162390,331.701813 27.337273,268.075043 
	C27.347183,264.469055 28.204622,259.972473 30.446835,257.511414 
	C32.786686,254.943146 37.256367,253.147095 40.837925,253.072296 
	C60.648888,252.658569 80.472969,252.872635 100.292549,252.872604 
	C204.727844,252.872391 309.163116,252.870773 413.598419,252.874268 
	C429.753418,252.874802 445.908417,252.899216 462.537476,253.451385 
	C463.013367,302.456329 463.158600,350.923431 462.830902,399.387299 
	C462.791077,405.280548 460.205994,411.156586 458.708374,416.576874 
	C458.593414,375.470886 458.571930,334.828674 458.543457,294.186432 
	C458.542175,292.355377 459.116394,290.137238 458.295471,288.782288 
	C457.000549,286.644989 454.746857,283.674133 452.902344,283.676514 
	C451.004456,283.678925 448.769135,286.588745 447.350006,288.680054 
	C446.567719,289.832825 447.135071,291.917847 447.134918,293.582611 
	C447.130463,340.388336 447.134918,387.194092 447.120514,433.999817 
	C447.119812,436.326141 446.962616,438.652374 446.558167,441.077637 
	C445.049500,442.068298 443.750336,442.845398 442.689117,443.869171 
	C429.338715,456.748505 413.469147,463.079895 394.860413,463.059113 
	C316.541687,462.971741 238.222794,463.033325 159.903976,463.020203 
	C115.745850,463.012787 71.587730,462.966187 27.429604,462.937225 
M406.495148,381.500427 
	C406.495178,353.189575 406.496948,324.878693 406.492310,296.567841 
	C406.491882,294.070435 406.541992,291.567932 406.404785,289.076843 
	C406.211151,285.560425 404.251740,283.320526 400.748199,283.371490 
	C397.257965,283.422241 395.421143,285.755463 395.151428,289.213867 
	C395.061005,290.373169 395.112579,291.544128 395.112549,292.709778 
	C395.111298,344.002411 395.110565,395.295044 395.116272,446.587677 
	C395.116425,448.084595 394.981293,449.621460 395.264526,451.070221 
	C395.878296,454.209747 397.915680,456.671478 401.084167,455.814514 
	C403.134186,455.260071 404.979523,452.858978 406.233582,450.857452 
	C406.994110,449.643646 406.488617,447.613495 406.489288,445.950104 
	C406.497833,424.800232 406.494965,403.650330 406.495148,381.500427 
M83.003166,375.500000 
	C83.003189,399.309814 83.001007,423.119629 83.008484,446.929443 
	C83.008957,448.425903 82.503654,450.384369 83.248421,451.321198 
	C84.730667,453.185760 86.946579,455.713928 88.809082,455.673096 
	C90.614105,455.633514 92.589630,452.889954 94.020378,450.981659 
	C94.669914,450.115326 94.210732,448.398407 94.210846,447.067322 
	C94.215378,395.451630 94.215630,343.835968 94.210587,292.220276 
	C94.210457,290.889374 94.661324,289.160767 94.004860,288.308594 
	C92.539337,286.406067 90.508186,283.656158 88.703651,283.653290 
	C86.841171,283.650299 84.682686,286.271301 83.231178,288.182861 
	C82.497299,289.149353 83.008041,291.083984 83.007706,292.580902 
	C83.001511,319.887268 83.003174,347.193634 83.003166,375.500000 
M135.019958,440.475189 
	C135.020004,442.473297 135.018478,444.471436 135.020401,446.469543 
	C135.027039,453.363678 136.753799,456.175751 140.885773,456.024323 
	C144.848358,455.879150 146.253571,453.417969 146.254105,446.531342 
	C146.258011,395.246674 146.256973,343.962036 146.253387,292.677368 
	C146.253296,291.346008 146.260086,290.011047 146.170853,288.683990 
	C145.942429,285.286682 143.706833,282.941986 140.746262,283.555359 
	C138.597458,284.000549 136.667206,286.650177 135.194275,288.712952 
	C134.479721,289.713715 135.022308,291.623291 135.022232,293.121429 
	C135.019485,341.908478 135.019958,390.695496 135.019958,440.475189 
M187.036346,441.460846 
	C187.039795,444.291626 186.951904,447.126190 187.069427,449.952240 
	C187.222153,453.624329 189.015442,456.054718 192.899307,455.971649 
	C196.548401,455.893646 198.128510,453.506653 198.262543,450.044617 
	C198.314041,448.714203 198.294174,447.380737 198.294205,446.048645 
	C198.295563,395.094391 198.296143,344.140106 198.292114,293.185852 
	C198.292007,291.688019 198.301834,290.186127 198.201813,288.693176 
	C197.974976,285.307343 195.765320,282.936646 192.788757,283.552979 
	C190.633789,283.999237 188.695160,286.638092 187.214432,288.697754 
	C186.497803,289.694550 187.038895,291.607544 187.038803,293.105713 
	C187.035858,342.228302 187.036362,391.350861 187.036346,441.460846 
M291.071167,369.500000 
	C291.071228,394.977600 291.070221,420.455200 291.071899,445.932800 
	C291.072388,453.320862 292.714600,456.142303 296.934692,456.027893 
	C300.994080,455.917847 302.387360,453.399628 302.387848,446.090149 
	C302.391266,395.134979 302.391266,344.179810 302.383301,293.224640 
	C302.383026,291.561859 302.881500,289.503326 302.099335,288.325165 
	C300.789520,286.352234 298.635040,283.650604 296.833893,283.648987 
	C294.961304,283.647308 292.797302,286.262054 291.333221,288.171600 
	C290.593475,289.136414 291.077789,291.070801 291.077301,292.566803 
	C291.068848,317.877869 291.071198,343.188934 291.071167,369.500000 
M354.433228,420.500366 
	C354.432037,377.370941 354.419586,334.241516 354.447876,291.112091 
	C354.450562,287.027008 353.520996,283.360016 348.748627,283.413025 
	C344.057831,283.465118 343.066071,287.066437 343.068970,291.181702 
	C343.105927,343.469849 343.102173,395.758057 343.076447,448.046234 
	C343.074463,452.054779 343.744537,455.547791 348.579926,455.999023 
	C352.299316,456.346039 354.370514,453.635529 354.408478,448.476959 
	C354.474548,439.485199 354.430908,430.492615 354.433228,420.500366 
M250.326645,381.500244 
	C250.326645,359.186981 250.328964,336.873749 250.325409,314.560486 
	C250.324081,306.234772 250.315155,297.909027 250.297516,289.583313 
	C250.289551,285.820953 248.422882,283.332153 244.659836,283.387604 
	C240.926712,283.442596 239.117172,285.991821 239.066956,289.709259 
	C239.053467,290.708191 239.055374,291.707367 239.055374,292.706451 
	C239.054901,343.993652 239.054230,395.280823 239.058655,446.568024 
	C239.058792,448.065430 238.915176,449.599304 239.182831,451.052765 
	C239.765594,454.217316 241.825729,456.646790 244.980103,455.806976 
	C247.017960,455.264404 248.792709,452.827881 250.111267,450.856171 
	C250.813202,449.806549 250.321625,447.940369 250.322067,446.442749 
	C250.328278,425.128601 250.326523,403.814423 250.326645,381.500244 
z"/>
<path fill="#000000" opacity="1.000000" stroke="none" 
	d="
M98.508820,240.508774 
	C98.067566,233.092957 98.400101,225.896805 92.331703,219.706512 
	C100.726234,215.697098 108.634384,211.960739 116.507561,208.152069 
	C141.420425,196.100464 166.312729,184.006363 191.227798,171.959351 
	C206.391434,164.627426 221.661575,157.510025 236.717072,149.963470 
	C241.822083,147.404587 246.328079,145.966049 252.273239,147.791977 
	C256.233795,149.008377 261.045807,147.362457 265.484070,147.152679 
	C267.604614,147.052429 270.055115,146.659988 271.824829,147.508347 
	C295.596710,158.903839 319.256866,170.532089 342.981934,182.025772 
	C360.937531,190.724411 378.937378,199.331909 396.935486,207.942505 
	C404.893372,211.749710 412.895599,215.464233 419.887207,218.754654 
	C418.095367,226.266403 416.428314,233.255142 414.625854,240.811401 
	C414.144806,240.838272 412.694641,240.990067 411.244476,240.990219 
	C308.441528,241.001328 205.638580,241.000931 102.835632,240.993546 
	C101.506096,240.993454 100.176567,240.891708 98.508820,240.508774 
z"/>
<path fill="#CFD6FE" opacity="1.000000" stroke="none" 
	d="
M458.800476,417.040619 
	C460.205994,411.156586 462.791077,405.280548 462.830902,399.387299 
	C463.158600,350.923431 463.013367,302.456329 463.000366,253.525574 
	C466.649902,252.999313 470.313141,252.820587 473.970734,252.900681 
	C481.386719,253.063080 486.049957,257.494110 486.715576,264.895996 
	C486.849457,266.384857 486.793762,267.892456 486.793823,269.391418 
	C486.796875,336.201813 486.798706,403.012207 486.794464,469.822601 
	C486.793671,482.729980 482.725525,486.760834 469.690643,486.761139 
	C328.405823,486.764557 187.121002,486.763611 45.836170,486.763000 
	C30.706390,486.762909 27.193489,483.291504 27.205534,468.356781 
	C27.206743,466.857635 27.238773,465.358459 27.343052,463.398254 
	C71.587730,462.966187 115.745850,463.012787 159.903976,463.020203 
	C238.222794,463.033325 316.541687,462.971741 394.860413,463.059113 
	C413.469147,463.079895 429.338715,456.748505 442.689117,443.869171 
	C443.750336,442.845398 445.049500,442.068298 446.656860,441.525208 
	C447.122528,444.853851 446.462280,448.095673 447.438202,450.731750 
	C448.231018,452.873291 450.750488,455.267242 452.927887,455.792236 
	C456.073486,456.550720 457.996613,453.961639 458.393311,450.765381 
	C458.596161,449.130890 458.523346,447.459839 458.539368,445.804932 
	C458.632294,436.216888 458.714600,426.628723 458.800476,417.040619 
z"/>
<path fill="#7E8EEE" opacity="1.000000" stroke="none" 
	d="
M251.905853,83.882797 
	C248.617401,84.531807 247.099930,82.872795 246.177048,79.897209 
	C242.784668,68.959457 239.057098,58.120480 235.933319,47.108829 
	C235.286636,44.829239 236.218155,41.754375 237.274002,39.433521 
	C238.414322,36.927078 240.800385,35.018051 242.204224,32.594265 
	C244.899689,27.940399 248.696121,26.246538 254.444153,27.756851 
	C257.377045,31.318031 259.586029,34.653721 262.137909,37.702374 
	C264.527863,40.557526 264.871704,43.307480 263.686798,46.863110 
	C259.593048,59.147430 255.808258,71.534714 251.905853,83.882797 
z"/>
<path fill="#5569E8" opacity="1.000000" stroke="none" 
	d="
M252.376358,83.910812 
	C255.808258,71.534714 259.593048,59.147430 263.686798,46.863110 
	C264.871704,43.307480 264.527863,40.557526 262.137909,37.702374 
	C259.586029,34.653721 257.377045,31.318031 254.857361,27.838699 
	C265.939941,25.928520 274.952667,31.381989 278.403198,42.146282 
	C278.866699,43.592216 278.599792,45.471104 278.134186,46.984261 
	C274.753326,57.971298 271.401245,68.974419 267.593750,79.815720 
	C266.968475,81.596146 264.314301,83.355576 262.306061,83.796806 
	C259.288239,84.459839 256.012787,83.949989 252.376358,83.910812 
z"/>
<path fill="#7C8CEE" opacity="1.000000" stroke="none" 
	d="
M69.614052,240.271729 
	C69.500122,237.263962 69.174294,234.555832 69.716248,232.034195 
	C70.696404,227.473633 74.231827,225.279327 79.010376,225.857193 
	C83.434128,226.392136 85.676102,229.107834 86.116814,233.434143 
	C86.917015,241.289368 86.415749,241.930328 78.397835,241.782150 
	C75.523705,241.729034 72.661163,241.049225 69.614052,240.271729 
z"/>
<path fill="#7C8CEE" opacity="1.000000" stroke="none" 
	d="
M441.467316,241.769379 
	C439.043060,241.812057 437.026154,242.061554 435.086700,241.779251 
	C432.386963,241.386276 428.391907,243.604141 427.825104,238.370728 
	C427.117493,231.837128 429.146057,227.285248 433.529480,226.062469 
	C438.221832,224.753494 442.838959,226.624786 443.923615,231.110001 
	C444.783691,234.666611 447.449432,239.160095 441.467316,241.769379 
z"/>
<path fill="#2E47E3" opacity="1.000000" stroke="none" 
	d="
M406.495117,382.000427 
	C406.494965,403.650330 406.497833,424.800232 406.489288,445.950104 
	C406.488617,447.613495 406.994110,449.643646 406.233582,450.857452 
	C404.979523,452.858978 403.134186,455.260071 401.084167,455.814514 
	C397.915680,456.671478 395.878296,454.209747 395.264526,451.070221 
	C394.981293,449.621460 395.116425,448.084595 395.116272,446.587677 
	C395.110565,395.295044 395.111298,344.002411 395.112549,292.709778 
	C395.112579,291.544128 395.061005,290.373169 395.151428,289.213867 
	C395.421143,285.755463 397.257965,283.422241 400.748199,283.371490 
	C404.251740,283.320526 406.211151,285.560425 406.404785,289.076843 
	C406.541992,291.567932 406.491882,294.070435 406.492310,296.567841 
	C406.496948,324.878693 406.495178,353.189575 406.495117,382.000427 
z"/>
<path fill="#2F49E3" opacity="1.000000" stroke="none" 
	d="
M458.708374,416.576874 
	C458.714600,426.628723 458.632294,436.216888 458.539368,445.804932 
	C458.523346,447.459839 458.596161,449.130890 458.393311,450.765381 
	C457.996613,453.961639 456.073486,456.550720 452.927887,455.792236 
	C450.750488,455.267242 448.231018,452.873291 447.438202,450.731750 
	C446.462280,448.095673 447.122528,444.853851 446.976929,441.426270 
	C446.962616,438.652374 447.119812,436.326141 447.120514,433.999817 
	C447.134918,387.194092 447.130463,340.388336 447.134918,293.582611 
	C447.135071,291.917847 446.567719,289.832825 447.350006,288.680054 
	C448.769135,286.588745 451.004456,283.678925 452.902344,283.676514 
	C454.746857,283.674133 457.000549,286.644989 458.295471,288.782288 
	C459.116394,290.137238 458.542175,292.355377 458.543457,294.186432 
	C458.571930,334.828674 458.593414,375.470886 458.708374,416.576874 
z"/>
<path fill="#2B44E2" opacity="1.000000" stroke="none" 
	d="
M83.003166,375.000000 
	C83.003174,347.193634 83.001511,319.887268 83.007706,292.580902 
	C83.008041,291.083984 82.497299,289.149353 83.231178,288.182861 
	C84.682686,286.271301 86.841171,283.650299 88.703651,283.653290 
	C90.508186,283.656158 92.539337,286.406067 94.004860,288.308594 
	C94.661324,289.160767 94.210457,290.889374 94.210587,292.220276 
	C94.215630,343.835968 94.215378,395.451630 94.210846,447.067322 
	C94.210732,448.398407 94.669914,450.115326 94.020378,450.981659 
	C92.589630,452.889954 90.614105,455.633514 88.809082,455.673096 
	C86.946579,455.713928 84.730667,453.185760 83.248421,451.321198 
	C82.503654,450.384369 83.008957,448.425903 83.008484,446.929443 
	C83.001007,423.119629 83.003189,399.309814 83.003166,375.000000 
z"/>
<path fill="#2B45E2" opacity="1.000000" stroke="none" 
	d="
M135.019958,439.978882 
	C135.019958,390.695496 135.019485,341.908478 135.022232,293.121429 
	C135.022308,291.623291 134.479721,289.713715 135.194275,288.712952 
	C136.667206,286.650177 138.597458,284.000549 140.746262,283.555359 
	C143.706833,282.941986 145.942429,285.286682 146.170853,288.683990 
	C146.260086,290.011047 146.253296,291.346008 146.253387,292.677368 
	C146.256973,343.962036 146.258011,395.246674 146.254105,446.531342 
	C146.253571,453.417969 144.848358,455.879150 140.885773,456.024323 
	C136.753799,456.175751 135.027039,453.363678 135.020401,446.469543 
	C135.018478,444.471436 135.020004,442.473297 135.019958,439.978882 
z"/>
<path fill="#2C45E2" opacity="1.000000" stroke="none" 
	d="
M187.036346,440.967163 
	C187.036362,391.350861 187.035858,342.228302 187.038803,293.105713 
	C187.038895,291.607544 186.497803,289.694550 187.214432,288.697754 
	C188.695160,286.638092 190.633789,283.999237 192.788757,283.552979 
	C195.765320,282.936646 197.974976,285.307343 198.201813,288.693176 
	C198.301834,290.186127 198.292007,291.688019 198.292114,293.185852 
	C198.296143,344.140106 198.295563,395.094391 198.294205,446.048645 
	C198.294174,447.380737 198.314041,448.714203 198.262543,450.044617 
	C198.128510,453.506653 196.548401,455.893646 192.899307,455.971649 
	C189.015442,456.054718 187.222153,453.624329 187.069427,449.952240 
	C186.951904,447.126190 187.039795,444.291626 187.036346,440.967163 
z"/>
<path fill="#2D46E2" opacity="1.000000" stroke="none" 
	d="
M291.071167,369.000000 
	C291.071198,343.188934 291.068848,317.877869 291.077301,292.566803 
	C291.077789,291.070801 290.593475,289.136414 291.333221,288.171600 
	C292.797302,286.262054 294.961304,283.647308 296.833893,283.648987 
	C298.635040,283.650604 300.789520,286.352234 302.099335,288.325165 
	C302.881500,289.503326 302.383026,291.561859 302.383301,293.224640 
	C302.391266,344.179810 302.391266,395.134979 302.387848,446.090149 
	C302.387360,453.399628 300.994080,455.917847 296.934692,456.027893 
	C292.714600,456.142303 291.072388,453.320862 291.071899,445.932800 
	C291.070221,420.455200 291.071228,394.977600 291.071167,369.000000 
z"/>
<path fill="#2D47E2" opacity="1.000000" stroke="none" 
	d="
M354.433228,421.000366 
	C354.430908,430.492615 354.474548,439.485199 354.408478,448.476959 
	C354.370514,453.635529 352.299316,456.346039 348.579926,455.999023 
	C343.744537,455.547791 343.074463,452.054779 343.076447,448.046234 
	C343.102173,395.758057 343.105927,343.469849 343.068970,291.181702 
	C343.066071,287.066437 344.057831,283.465118 348.748627,283.413025 
	C353.520996,283.360016 354.450562,287.027008 354.447876,291.112091 
	C354.419586,334.241516 354.432037,377.370941 354.433228,421.000366 
z"/>
<path fill="#2C46E2" opacity="1.000000" stroke="none" 
	d="
M250.326660,382.000244 
	C250.326523,403.814423 250.328278,425.128601 250.322067,446.442749 
	C250.321625,447.940369 250.813202,449.806549 250.111267,450.856171 
	C248.792709,452.827881 247.017960,455.264404 244.980103,455.806976 
	C241.825729,456.646790 239.765594,454.217316 239.182831,451.052765 
	C238.915176,449.599304 239.058792,448.065430 239.058655,446.568024 
	C239.054230,395.280823 239.054901,343.993652 239.055374,292.706451 
	C239.055374,291.707367 239.053467,290.708191 239.066956,289.709259 
	C239.117172,285.991821 240.926712,283.442596 244.659836,283.387604 
	C248.422882,283.332153 250.289551,285.820953 250.297516,289.583313 
	C250.315155,297.909027 250.324081,306.234772 250.325409,314.560486 
	C250.328964,336.873749 250.326645,359.186981 250.326660,382.000244 
z"/>
</svg>
